<svg width="229" height="208" fill="none" xmlns="http://www.w3.org/2000/svg"><path d="M229 142.53c-1.14 4.3-2.49 8.46-5.48 11.96-5.1 5.97-11.49 8.96-19.3 8.97-18.27.01-36.54 0-54.81 0h-2.81c2.02 10.1 3.97 19.98 5.97 29.86 1.07 5.27 1.11 5.26 6.41 5.26 5.57 0 11.14-.03 16.71.02 2.93.02 4.57 1.37 4.9 3.81.3 2.23-1.17 4.34-3.39 4.72-.94.16-1.92.15-2.89.15-39.59.01-79.17.01-118.76 0-.74 0-1.49.01-2.23-.05-2.48-.22-4.24-2.03-4.23-4.31.01-2.29 1.77-4.23 4.26-4.27 5.79-.11 11.58-.06 17.38-.07 5.37-.01 5.41.01 6.47-5.19 2.01-9.88 3.97-19.77 6-29.94H26.54c-15.47 0-25.75-10.23-25.75-25.63 0-37.28-.01-74.57.01-111.85C.81 13.48 8.84 3.64 20.81 1.46c1.88-.34 3.84-.36 5.77-.36 58.9-.02 117.79.13 176.69-.12 13.19-.06 23.96 9.24 25.43 20.6.03.21.2.39.3.59v120.36Zm-8.92-23.07c.04-.79.1-1.36.1-1.94 0-30.46.01-60.91-.01-91.37 0-1.47-.08-2.99-.44-4.41-1.89-7.61-7.82-11.92-16.36-11.92-58.98-.01-117.96-.01-176.94.02-1.77 0-3.59.14-5.29.59-7.37 1.96-11.51 7.73-11.52 15.96-.02 24.44-.01 48.88 0 73.32 0 .71.08 1.43.13 2.29h2.59c7.58 0 15.15-.02 22.73.01 3.15.01 5.13 1.73 5.17 4.34.04 2.68-1.97 4.45-5.27 4.48-5.65.04-11.29.01-16.94.01H9.78v8.63c70.12-.01 140.08-.01 210.3-.01Zm.47 9H9.81c0 4.59-.11 9.03.07 13.47.06 1.42.71 2.9 1.39 4.19 3.2 6.08 8.39 8.55 15.17 8.54 58.98-.05 117.95-.03 176.93-.03.82 0 1.63-.01 2.45-.06 6.27-.36 12.09-4.42 13.42-10.53 1.08-5 .91-10.26 1.31-15.58Zm-82.89 35.12H92.14c-2.32 11.62-4.62 23.16-6.96 34.88h59.44c-2.34-11.71-4.64-23.24-6.96-34.88Z" fill="#fff"/><path d="M141.37 75.75c3.09 3.06 5.91 5.8 8.68 8.59 2.69 2.71 2.71 5 .07 7.68-2.65 2.7-5.32 5.38-8.03 8.02-2.55 2.49-4.79 2.5-7.36-.02-2.86-2.8-5.63-5.68-8.83-8.91-2.32 2.43-4.52 4.7-6.67 7.01-1.45 1.56-3.08 2.63-5.3 2.02-2.26-.62-2.94-2.5-3.4-4.53-2.91-12.71-5.85-25.41-8.76-38.12-.98-4.28 1.52-6.9 5.77-5.94 13 2.96 26 5.95 38.98 8.98 4.22.99 5.37 4.77 2.37 7.87-2.37 2.46-4.87 4.78-7.52 7.35Zm-3.57-8.24c-9.17-2.1-17.5-4.01-26.12-5.99 2.03 8.75 3.96 17.08 5.97 25.75 1.65-1.65 3-3.02 4.36-4.36 2.89-2.84 5.1-2.84 8 .04 2.77 2.75 5.52 5.53 7.86 7.87 1.27-.96 2.37-1.79 3.61-2.72-2.96-2.92-5.77-5.66-8.54-8.45-2.68-2.71-2.67-4.95.04-7.67 1.4-1.42 2.91-2.71 4.82-4.47ZM128.76 39.63c-.11.3-.19 1.23-.69 1.77-1.85 2.01-3.71 4.04-5.82 5.76-1.57 1.29-3.87.84-5.26-.57-1.4-1.42-1.83-3.72-.52-5.28 1.74-2.09 3.63-4.16 5.81-5.75 2.74-2 6.45.19 6.48 4.07ZM111.39 34.97c-.09 1.33-.05 2.68-.31 3.97-.43 2.14-2.01 3.38-4.07 3.43-2.15.05-3.99-1.18-4.25-3.41-.3-2.55-.31-5.18-.07-7.73.22-2.28 2.2-3.74 4.3-3.69 2.09.05 3.87 1.6 4.19 3.87.17 1.16.03 2.36.03 3.55.06.01.12.01.18.01ZM98.46 43.95c-.86 1.1-1.56 2.41-2.62 3.26-1.31 1.04-3.06 1.05-4.33-.06-2.06-1.79-4.05-3.7-5.79-5.79-1.27-1.53-.97-3.41.29-4.92 1.24-1.5 3.2-2.41 4.72-1.25 2.59 1.99 4.77 4.53 7.05 6.91.29.31.19.99.27 1.5.14.12.28.23.41.35ZM89.34 78.61c-3.41-.06-5.6-3.87-3.59-6.57 1.61-2.17 3.69-4.04 5.78-5.78 1.54-1.29 3.38-.94 4.92.28 1.58 1.25 2.34 3.31 1.26 4.74-1.96 2.61-4.55 4.75-6.93 7.03-.32.29-1 .21-1.44.3ZM85.1 60.97c-1.18 0-2.38.11-3.55-.02-2.24-.25-3.77-2.03-3.78-4.22-.02-2.21 1.46-4.06 3.72-4.23 2.43-.18 4.89-.18 7.32-.01 2.25.16 3.8 2.03 3.81 4.18.02 2.25-1.61 4.07-3.96 4.3-1.17.11-2.37.02-3.55.02-.01 0-.01-.01-.01-.02ZM53.41 106.4c0 2.41-2.02 4.43-4.39 4.4-2.39-.03-4.34-2.09-4.29-4.5.06-2.37 1.92-4.2 4.28-4.23 2.47-.03 4.4 1.87 4.4 4.33ZM114.97 150.21c-4.89.03-8.83-3.85-8.84-8.69-.01-4.78 4.03-8.8 8.82-8.77 4.7.02 8.63 3.91 8.73 8.63.09 4.8-3.85 8.79-8.71 8.83Z" fill="#fff"/></svg>