<svg width="208" height="241" fill="none" xmlns="http://www.w3.org/2000/svg"><path d="M193.9 96.23c7.78.89 13.3 7.81 13.33 16.84.04 13.51.01 27.02.01 40.54 0 12.66-.01 25.33.01 37.99.01 5.9-.96 11.52-4.44 16.46-.64.92-.67 1.42.57 1.75 2.85.77 3.81 2.98 3.84 5.64.07 6.33.01 12.66.03 18.99.01 2.94-1.41 4.9-4.06 6.05h-7.89v-10.18c.96-.03 1.57-.31 1.51-1.49-.09-1.69-.02-3.39-.02-5.08 0-3.83 0-3.83-3.81-4.08 0-3.46.02-6.92-.01-10.38-.01-1.44.26-2.93-.55-4.28 2.73-3.3 4.38-6.98 4.38-11.38-.04-27-.03-54.01 0-81.01 0-2.74-1.04-4.74-3.39-6.08.95-3.39.3-6.87.49-10.3ZM118.28 240.49c-3.04-1.21-4.19-3.52-4.14-6.71.09-5.86-.24-11.74.12-17.58.24-3.93-.4-7.82-.06-11.72.19-2.26-.41-4.02-2.22-5.42-.78-.6-1.36-1.45-2.03-2.18 1.4-.3.85-1.42.9-2.23.24-3.56-.45-7.16.46-10.69 3.9 3.85 7.81 7.69 11.68 11.56 1.02 1.02 1.48 2.33 1.5 3.78.04 2.78.16 5.56.1 8.34-.03 1.38.37 1.91 1.82 1.87 2.54-.08 5.09.04 7.64.07v10.1c-2.62.03-5.24.1-7.86.09-1.12-.01-1.73.27-1.7 1.54.06 2.47.05 4.94 0 7.41-.03 1.25.55 1.56 1.7 1.54 1.85-.04 3.7.04 5.55.07v10.18c-4.49-.02-8.97-.02-13.46-.02ZM176.74 240.491h-23.66v-10.18h23.66v10.18Z" fill="#fff"/><path d="M153.07 230.311v10.18h-21.34v-10.18h21.34ZM176.74 240.491v-10.18h18.56v10.18h-18.56ZM18.57 219.681c-9.81 1.25-17.64-5.66-18-15.89-.01-.39 0-.77 0-1.16 0-60.81.01-121.61-.01-182.42 0-6.88 2.4-12.35 8.75-15.61 2.3-1.18 4.77-1.75 7.38-1.58.8 3.34.35 6.74.46 10.11-4.94.75-6.13 2.13-6.13 7.15v181.01c0 6.81.9 7.8 7.52 8.25l.03 10.14ZM41.27 199.12c-5.01.29-9.89.05-14.05-3.32-3.56-2.88-5.47-6.6-5.86-11.13-.07-.77-.06-1.54-.06-2.31 0-43.87.01-87.73-.02-131.6-.01-6.88 2.66-12.1 8.88-15.27 3.21-1.64 6.69-1.67 10.18-1.41v10.1c-8.13.42-8.77 1.1-8.77 9.42v127.56c0 6.23 1.54 7.74 7.85 7.75 1.23 0 2.47.06 3.7.1-.46 3.39 1.37 7.21-1.85 10.11ZM110.85 154.24c.97.86 1.94 1.73 3.01 2.67.56-.81.3-1.67.3-2.46.02-27.52.02-55.03.01-82.55 0-6.02 2-11.03 7.05-14.58 2.89-2.03 6.1-2.82 9.6-2.44v10.11c-4.37.08-6.04 1.74-6.18 6.16-.02.7-.01 1.39-.01 2.09v94.16c0 .92-.03 1.85-.11 2.77-.21 2.19-1.3 3.77-3.37 4.58-2.12.82-3.99.17-5.54-1.31-1.85-1.75-3.57-3.63-5.35-5.45 1.15-4.53.39-9.16.59-13.75Z" fill="#fff"/><path d="M130.81 65V54.89c7.67-.01 14.16 6.79 14.36 15.15.11 4.62.02 9.25.03 13.87v2.36c2.59-.23 4.98-1.22 7.42-.27-.2 3.38.47 6.8-.46 10.15-4.73-.52-6.94 1.44-6.95 6.211-.02 9.11.02 18.23-.02 27.34-.01 2.38 1 5.5-.38 6.94-1.51 1.57-4.68.25-7.1.54-2.19.27-2.84-.43-2.83-2.73.1-21.01.04-42.01.07-63.02-.01-3.09-.99-5.42-4.14-6.43ZM148.43 3.03c10.24-.55 17.41 6.01 17.47 16.29.1 18.01.01 36.03.06 54.04 0 1.51-.42 2.05-1.97 1.96-2.08-.13-4.18-.16-6.26.01-1.9.16-2.3-.56-2.29-2.34.06-17.4.04-34.79.04-52.19 0-5.84-1.28-7.23-7.04-7.66 0-3.37 0-6.74-.01-10.11ZM87.54 174.48c-6.77-6.52-13.66-12.96-19.87-20.02-7.67-8.72-3.38-22.1 7.82-24.99 4.52-1.17 8.85-.5 12.65 2.45-1.09.49-.95 1.46-.95 2.38v10.61c-1.7-1.55-3.3-3.24-5.13-4.63-1.91-1.46-4.32-1.33-5.99.11-1.75 1.5-2.22 3.4-1.53 5.63.41 1.32 1.3 2.25 2.22 3.19 3.78 3.85 7.56 7.69 11.35 11.54-.48 1.87-.45 3.77-.46 5.68 0 2.69-.07 5.37-.11 8.05Z" fill="#fff"/><path d="M152.15 96.16c.93-3.35.27-6.77.46-10.15 2.57.04 4.84 1.06 6.76 2.62 1 .81 1.49.69 2.4.08 3.1-2.1 6.45-3.45 10.31-2.91 0 3.41.01 6.82.01 10.23-1.28.04-2.58-.04-3.77.62-2.23 1.24-2.39 3.361-2.39 5.561 0 9.19-.05 18.37.04 27.56.02 1.88-.57 2.41-2.36 2.28-2-.14-4.02-.15-6.02.01-1.81.15-2.17-.57-2.16-2.24.07-9.11-.02-18.22.07-27.33.04-2.84-.81-4.98-3.35-6.33ZM172.1 96.02c0-3.41-.01-6.82-.01-10.23 6.07.34 10.22 3.6 12.79 8.87.81 1.66 1.32 2.4 3.33 1.74 1.78-.58 3.78-.87 5.7-.17-.19 3.44.46 6.91-.5 10.31-4.39-.63-6.83 1.38-6.89 5.78-.05 4.25-.04 8.5 0 12.74.01 1.15-.08 1.91-1.57 1.83-2.23-.11-4.48-.13-6.71.01-1.67.11-2.06-.5-2.04-2.09.08-7.34.01-14.67.04-22.01.01-3.15-1.02-5.59-4.14-6.78ZM87.2 144.921v-10.61c0-.92-.14-1.89.95-2.38.62.45 1.32.82 1.86 1.35 6.96 6.98 13.9 13.97 20.84 20.97-.2 4.58.56 9.21-.61 13.75-7.86-7.52-15.49-15.25-23.04-23.08ZM87.54 174.481c.04-2.68.11-5.36.12-8.04 0-1.91-.03-3.82.46-5.68 8.03 7.44 15.35 15.58 23.19 23.2-.91 3.53-.22 7.13-.46 10.69-.05.81.5 1.94-.9 2.23-7.73-7.22-15.04-14.84-22.41-22.4ZM93.58 18.39c4.55 0 9.1.05 13.65-.03 1.4-.02 1.91.39 1.84 1.83-.1 2.39-.07 4.78-.01 7.17.03 1.08-.33 1.5-1.45 1.49-9.33-.03-18.66-.03-27.99.01-1.19 0-1.65-.36-1.62-1.59.07-2.31.11-4.63-.01-6.94-.08-1.51.4-2.01 1.94-1.98 4.54.09 9.1.04 13.65.04ZM72.81 209.57c9.88-.03 19.76-.05 29.64-.12 1.1-.01 1.5.35 1.47 1.46-.06 2.47-.06 4.94 0 7.41.03 1.09-.35 1.48-1.46 1.48-9.88-.06-19.76-.09-29.64-.12 0-3.37 0-6.74-.01-10.11Z" fill="#fff"/><path d="M72.81 209.57c0 3.37.01 6.74.01 10.11-10.36.16-20.72.2-31.09 0 0-3.37 0-6.73-.01-10.1 10.38-.01 20.74-.01 31.09-.01ZM97.4 44.17H67.25v-10.1H97.4c.01 3.37 0 6.74 0 10.1ZM80.94 15.24c11.051 0 20.01-3.2 20.01-7.15 0-3.948-8.959-7.15-20.01-7.15-11.051 0-20.01 3.202-20.01 7.15 0 3.95 8.959 7.15 20.01 7.15Z" fill="#fff"/><path d="M95.09 13.14V3.03h27.37v10.11H95.09ZM97.4 44.17v-10.1h27.37v10.1H97.4ZM66.79 3.03v10.11H39.88V3.04c8.97-.01 17.94-.01 26.91-.01ZM67.25 34.07v10.1H40.34v-10.1h26.91Z" fill="#fff"/><path d="M122.46 13.14V3.03h25.98v10.11h-25.98ZM86.71 64.8c-7.64.39-15.29.07-22.93.18-.94.01-1.18-.44-1.17-1.28.03-2.63.04-5.26-.01-7.88-.02-1.07.48-1.29 1.41-1.28 7.57.06 15.14.09 22.71.13 0 3.37-.01 6.75-.01 10.13ZM41.27 199.12c3.21-2.9 1.39-6.72 1.86-10.12h24.59c0 1.3.01 2.6 0 3.91-.02 2.25.57 4.68-1.86 6.21H41.27ZM41.74 209.571c0 3.37 0 6.73.01 10.1-7.72.19-15.45.2-23.18.01l-.03-10.12c7.73.01 15.46.01 23.2.01ZM39.88 3.03v10.1c-7.58 0-15.15 0-22.73.01-.12-3.37.34-6.77-.46-10.11h23.19ZM52.14 106.29c-2.86 0-5.71-.049-8.57.031-1.32.04-1.77-.421-1.72-1.731.08-2.39.07-4.79 0-7.18-.03-1.22.42-1.6 1.62-1.59 5.86.05 11.73.05 17.6 0 1.23-.01 1.61.41 1.57 1.6-.07 2.39-.09 4.791.01 7.181.05 1.32-.4 1.749-1.71 1.709-2.93-.08-5.87-.02-8.8-.02ZM124.77 44.17v-10.1c5.49-.39 10.82-.19 15.21 3.83 2.85 2.61 4.49 5.81 5.09 9.61.21 1.31.01 2.04-1.59 1.91-1.61-.13-3.24-.07-4.86-.01-2.09.08-3.93.25-4.68-2.57-.51-1.91-2.61-2.47-4.55-2.57-1.53-.08-3.07-.07-4.62-.1ZM93.38 85.56c-2.78 0-5.55-.06-8.33.03-1.35.04-1.97-.26-1.9-1.77.12-2.31.07-4.63.01-6.94-.03-1.17.32-1.64 1.56-1.63 5.86.05 11.72.05 17.58.01 1.15-.01 1.66.27 1.62 1.53-.09 2.39-.1 4.78 0 7.17.06 1.41-.54 1.65-1.76 1.62-2.92-.07-5.85-.02-8.78-.02ZM64.47 116.68c5.71-.03 11.42-.03 17.13-.1 1.18-.01 1.66.32 1.62 1.56-.08 2.39-.08 4.79 0 7.18.04 1.24-.44 1.58-1.62 1.56-5.71-.07-11.42-.07-17.13-.1v-10.1Z" fill="#fff"/><path d="M86.71 64.8c0-3.38.01-6.75.01-10.13 5.24-.04 10.47-.06 15.71-.14 1.06-.02 1.53.3 1.5 1.43-.06 2.54-.04 5.09-.01 7.63.01.94-.24 1.43-1.28 1.41-5.31-.14-10.63.24-15.93-.2ZM64.47 116.68v10.1c-5.25.03-10.49.03-15.74.11-1.19.02-1.64-.34-1.6-1.57.08-2.39.08-4.79 0-7.18-.04-1.23.41-1.59 1.6-1.57 5.25.08 10.49.08 15.74.11ZM65.86 199.121c2.42-1.53 1.84-3.96 1.86-6.21.01-1.3 0-2.6 0-3.91 4.71-.03 9.41-.05 14.12-.11.98-.01 1.38.35 1.37 1.35-.04 2.55-.06 5.1.01 7.64.03 1.25-.65 1.33-1.6 1.32-5.27-.04-10.51-.06-15.76-.08ZM52.33 59.68c0 5.31 0 5.31-5.26 5.31-5.19 0-5.19 0-5.19-5.15 0-5.3 0-5.3 5.26-5.3 5.19 0 5.19 0 5.19 5.14ZM78.09 106.301c-5.23 0-5.23 0-5.23-5.31 0-5.15 0-5.15 5.16-5.15 5.28 0 5.28 0 5.28 5.31.01 5.15.01 5.15-5.21 5.15ZM67.74 23.74c0 5.09 0 5.09-5.21 5.1-5.08 0-5.08 0-5.08-5 0-5.45 0-5.45 5.33-5.45 4.96 0 4.96 0 4.96 4.89v.46ZM47.27 75.28c5.04 0 5.04 0 5.04 5.03 0 5.25 0 5.25-5.27 5.25-5.16 0-5.16 0-5.16-5.13.01-5.15.01-5.15 5.39-5.15ZM62.61 80.27c0-4.99 0-4.99 5.05-4.99 5.22 0 5.22 0 5.22 5.3 0 4.98 0 4.98-5.07 4.98-5.2 0-5.2 0-5.2-5.29ZM192.97 219.661h-30.62c0-3.36-.01-6.73-.01-10.09 5.24-.04 10.48-.25 15.71-.06 5.38.2 10.25-.83 14.35-4.5.81 1.34.54 2.83.55 4.28.04 3.46.02 6.92.02 10.37Z" fill="#fff"/><path d="M162.35 209.571c0 3.36.01 6.73.01 10.09h-28.3v-10.1c9.43.01 18.86.01 28.29.01Z" fill="#fff"/></svg>