<svg width="218" height="218" fill="none" xmlns="http://www.w3.org/2000/svg"><path d="M108.78 111.13c3.11-2.33 5.86-4.48 8.7-6.5 6.96-4.99 14.89-7.42 23.27-8.61 2.53-.36 4.54-1.47 5.74-3.8 1.41-2.74 1.1-3.98-1.36-5.75-5.47-3.91-9.01-9.14-10.92-15.57-.3-1.01-1.09-1.95-1.86-2.71-.87-.86-1.97-1.48-2.97-2.2-12.83-9.23-13.41-27.33-1.28-37.61 1.44-1.22 2.71-2.77 3.69-4.4 6.14-10.24 15.14-15.57 27.05-15.99 5.03-.18 10.03-.03 14.86 1.7 7.67 2.74 13.38 7.7 17.35 14.78.72 1.28 1.71 2.51 2.84 3.43 11.41 9.2 12.78 26.31 2.15 35.57-4.52 3.94-8.26 7.79-10.35 13.51-1.58 4.34-5.16 7.51-9.1 10.01-1.08.69-1.42 1.44-1.34 2.64.26 3.75 2.86 6.27 6.98 6.8 4.11.53 8.27.86 12.29 1.79 13.29 3.07 22.59 14.79 22.64 28.42.07 18.37.03 36.75.01 55.12-.01 6.52-4.45 10.94-10.95 10.99-3.26.02-6.52 0-9.97 0v24.27h-69.9v-81.74c-1.45.77-2.58 1.38-3.72 1.98-10.42 5.48-21.39 3.88-29.82-4.46-8.63-8.54-17.21-17.13-25.76-25.74-1.05-1.06-2.08-1.55-3.6-1.52-4.51.1-9.02.06-13.53.03-6.38-.04-10.82-4.48-10.88-10.84-.02-2.25-.05-4.5.01-6.75.14-5.63 4.45-9.96 10.1-10.33.82-.05 1.88-.43 2.35-1.03 5.73-7.32 14.81-7.99 21.42-1.44 9.13 9.07 18.22 18.17 27.32 27.26 2.86 2.91 5.7 5.81 8.54 8.69Zm24.56 56.92c.33.19.39.25.45.25 15.93.02 31.87.05 47.8.03.45 0 1.04-.38 1.34-.75 1.58-1.96 2.95-4.11 4.68-5.92 1.21-1.26 1.68-2.48 1.66-4.2-.07-9.8-.06-19.61-.02-29.41.01-4.21 1.44-7.84 4.31-10.68 1.8 1.65 3.39 3.11 5.07 4.66-2.16 2.35-2.46 5.09-2.43 8 .07 8.5.03 16.99.03 25.49v2.27h13.8c.07-.31.16-.51.16-.71 0-10.53.42-21.08-.13-31.58-.71-13.5-11.73-22.14-26.49-21.49-2.05 11.2-4.1 22.43-6.24 34.12-5.5-6.85-10.7-13.32-16.03-19.96-5.38 6.71-10.58 13.18-16.03 19.96-2.17-11.87-4.26-23.24-6.34-34.6-10.07 1.81-20.57 7.39-25.61 13.52l2.16 4.44c-2.17 1.07-4.1 2.03-6.18 3.06-.75-1.44-1.36-2.74-2.08-3.97-.73-1.24-1.4-2.58-2.39-3.58-7.41-7.49-14.89-14.92-22.36-22.36-.49-.49-1.01-.95-1.14-1.08-3.11 3.09-6.02 5.99-8.84 8.79 8.78 8.84 17.63 17.99 26.75 26.84 3.97 3.85 9.14 5.22 14.57 3.86 3.04-.76 5.93-2.28 8.76-3.72 4.57-2.31 4.58-2.64 1.67-7.02-.07-.11-.05-.27-.06-.36 1.53-1.57 3.04-3.12 4.66-4.79 2.98 2.99 4.43 6.52 4.48 10.59.07 5.59.02 11.18.02 16.77v23.53Zm55.89 42.04c0-9.5.02-18.85-.05-28.2 0-.52-.72-1.08-1.2-1.53-1.32-1.22-2.89-2.23-3.96-3.63-.82-1.06-1.54-1.43-2.83-1.43-15.27.04-30.55.03-45.82.03-.63 0-1.26.08-1.85.12v34.63h24.2c0-3.86.3-7.64-.07-11.36-.47-4.72-3.46-7.83-7.89-9.72.75-2.21 1.45-4.29 2.18-6.44 4.01 1.26 6.85 3.64 9.39 6.74 2.51-3.2 5.45-5.53 9.36-6.76.75 2.25 1.44 4.29 2.16 6.46-4.36 1.84-7.35 4.88-7.85 9.5-.41 3.78-.08 7.64-.08 11.57 8.04.02 16.02.02 24.31.02Zm0-149.88c3.2-2.24 5.12-4.8 6.17-8.01 2.31-7.04-.54-14.97-6.87-19.62-1.26-.93-2.38-2.29-3.09-3.69-2.69-5.33-6.62-9.29-12.05-11.81-4.57-2.12-9.42-2.28-14.32-2.11-10.25.35-17.59 5.18-22.16 14.34-.58 1.16-1.5 2.3-2.55 3.05-4.44 3.18-7.08 7.41-7.89 12.79-.88 5.83 2.16 12.44 6.94 14.75V46.31c13.26.55 24.89-3.26 35.03-11.46.34.24.61.37.8.57 5.2 5.53 11.43 9.34 18.72 11.51.55.16 1.18 1.19 1.2 1.83.13 3.67.07 7.35.07 11.45Zm-48.88-6.69c0 3.56-.08 7.26.02 10.95.28 10.61 8.9 19.49 19.48 20.16 10.75.68 20.45-6.76 21.95-17.32.66-4.63.37-9.41.38-14.12 0-.51-.88-1.13-1.48-1.5-3.78-2.28-7.65-4.42-11.36-6.8-1.09-.7-1.7-.75-2.86-.2-4.63 2.22-9.25 4.57-14.08 6.25-3.8 1.33-7.92 1.74-12.05 2.58Zm-64.27 34.6c-2.63-2.58-5.11-5.01-7.59-7.43-.57-.56-1.12-1.15-1.76-1.63-3.29-2.43-8.01-1.66-9.67 2.12-1.37 3.12-3.28 4.02-6.34 3.51-.28-.05-.58-.01-.87 0-2.46.1-3.77 1.35-3.84 3.78-.06 2.1-.05 4.21 0 6.31.06 2.53 1.38 3.82 3.99 3.84 4.73.04 9.45.03 14.18-.01.61-.01 1.39-.12 1.78-.5 3.35-3.22 6.61-6.5 10.12-9.99Zm134.1 76.75c-5.21 0-10.14-.02-15.07.03-.57.01-1.22.37-1.67.76-1.09.96-2.12 1.99-3.1 3.06-1.76 1.93-1.52 4.51.91 5.34 4.19 1.42 5.65 3.95 5.05 8.23-.28 2 1.33 3.38 3.39 3.46 2.32.09 4.65.09 6.98 0 2.07-.08 3.45-1.38 3.48-3.44.08-5.7.03-11.43.03-17.44Zm-48.9-58.32c2.14-2.98 3.91-5.92 6.15-8.43 2.15-2.4 1.98-4.66.9-6.88h-14.36c-.15 1.19-1.06 3.17-.43 4.24 2.23 3.79 5 7.25 7.74 11.07Zm-11.91 15.31c2.77-3.46 5.15-6.43 7.53-9.41-2.92-4.07-5.73-7.98-9-12.55-.84 1.39-1.96 2.37-1.84 3.17.93 6.06 2.1 12.08 3.31 18.79Zm24.59-21c-2.74 3.85-5.53 7.75-8.29 11.62 2.53 3.14 4.85 6.03 7.52 9.36 1.1-6.1 1.96-11.59 3.15-17 .5-2.27-.08-3.39-2.38-3.98Z" fill="#fff"/><path d="M.64 217.011c0-9.52-.24-18.89.07-28.24.25-7.55 6.15-13.9 13.66-15.59.77-.17 1.55-.35 2.37-.54-3.83-11.2-2.14-22.67-2-33.96.17-13.83 12.43-25.5 26.24-26.08 14.45-.6 27.32 9.52 28.97 23.5.82 6.95.35 14.06.51 21.09.12 5.19-.12 10.31-2.43 15.37.98.23 1.79.43 2.61.61 8.02 1.8 13.69 8.68 13.76 16.89.08 8.71.02 17.43.01 26.14 0 .21-.05.42-.1.79-27.81.02-55.63.02-83.67.02Zm33.99-6.91c-2.45-10.83-4.88-21.54-7.31-32.24-.62.04-.91.03-1.19.08-3.35.67-6.71 1.29-10.04 2.05-5.34 1.22-8.48 5.16-8.51 10.61-.03 5.96-.01 11.91 0 17.87 0 .55.1 1.1.15 1.63h26.9Zm15.78-.06h27c0-6.98.12-13.8-.05-20.61-.09-3.46-1.84-6.34-4.91-8.02-4.54-2.48-9.73-2.44-14.74-3.67-2.46 10.92-4.86 21.52-7.3 32.3Zm9.51-72.84c.05 1.1.1 2.1.15 3.14 1.14.2 2.17.38 3.42.61-.2-8.19-3.51-14.49-10.48-18.5-7.54-4.34-15.21-3.99-22.4.89-6.09 4.14-8.99 10.11-9.04 17.64 1.31-.26 2.35-.46 3.51-.69v-3.16c.41-.06.69-.15.96-.14 5.49.24 10.68-.8 15.56-3.39.55-.29 1.5-.09 2.18.13 2.61.87 5.12 2.12 7.78 2.7 2.65.58 5.45.53 8.36.77Zm-27.84 6.95c0 3.65-.2 7.49.05 11.31.36 5.41 5.22 9.53 10.67 9.4 5.34-.13 9.89-4.4 10.15-9.75.16-3.33.1-6.67 0-10-.02-.53-.69-1.34-1.22-1.51-2.68-.86-5.41-1.57-8.14-2.29-.58-.15-1.27-.25-1.83-.09-3.14.9-6.23 1.88-9.68 2.93Zm10.45 41.48v.16c1.6 0 3.21.13 4.79-.06.62-.08 1.48-.76 1.67-1.34.57-1.71.74-3.55 1.3-5.26.9-2.72.99-5.18-1.63-7.01-.59-.41-1.37-.75-2.07-.77-2.73-.09-5.45-.04-8.18-.04-.52 0-1.3-.15-1.53.13-1.64 1.97-4.02 3.75-2.29 6.87.24.43.23.98.35 1.47.5 1.95.42 4.67 1.68 5.64 1.28.97 3.89.21 5.91.21Zm-4.63 7.23c1.26 5.56 2.48 10.99 3.75 16.41.08.35.62.6.94.9.28-.35.72-.66.81-1.06.68-2.74 1.29-5.5 1.91-8.26.59-2.64 1.18-5.28 1.78-8-3.2.01-6.09.01-9.19.01Zm-16.66-31.9c.53 2.54.84 4.89 1.52 7.13 1.04 3.42 1.91 3.78 5.16 2.16 1.1-.55 2.83-2.27 2.72-2.44-1.48-2.25-3.07-4.5-5.02-6.34-.74-.69-2.49-.33-4.38-.51Zm32.98 6.76c1.31 2.17 3.38 3.06 5.79 3.26.44.04 1.16-.3 1.34-.66 1.45-2.93 2.26-6.02 2.08-9.32-1.48.14-2.78.22-4.05.41-.43.07-.93.34-1.18.68-1.34 1.79-2.58 3.63-3.98 5.63Zm-29.29-13.3v-6.96c-2.13.33-3.31 1.46-3.32 3.45-.01 1.99 1.18 3.11 3.32 3.51Zm35.05-6.98v7c2.26-.42 3.45-1.55 3.44-3.53-.01-1.98-1.19-3.12-3.44-3.47ZM70.46 50v4.93c-.01 3.78-1.67 6.56-5.13 8.12-3.3 1.49-6.72.73-9.57-2.07-3.37-3.31-6.65-6.71-10.07-9.96-.69-.66-1.85-1.14-2.8-1.15-7.05-.1-14.11-.04-21.16-.06-8.43-.02-14.11-5.67-14.13-14.05-.02-6.75-.02-13.5 0-20.25.03-8.54 6-14.49 14.58-14.5 15.92-.02 31.85-.02 47.77 0 8.45.01 14.44 5.97 14.49 14.37.04 6.24-.28 12.5.08 18.72.43 7.81-3.8 15.16-14.06 15.9Zm-6.98-7.15c2.52 0 4.7.01 6.88 0 4.46-.03 7.07-2.6 7.09-7.02.02-6.75.02-13.51 0-20.26-.02-4.75-2.86-7.57-7.64-7.58-15.86-.01-31.73-.01-47.59 0-4.75 0-7.62 2.86-7.64 7.57-.02 6.68-.02 13.36 0 20.05.01 4.7 2.56 7.23 7.3 7.24 7.93.01 15.86-.04 23.8.06 1.02.01 2.26.52 2.99 1.22 3.89 3.71 7.63 7.59 11.49 11.33.59.57 1.55.76 2.34 1.12.32-.81.91-1.61.93-2.43.1-3.69.05-7.38.05-11.3Z" fill="#fff"/><path d="M21.65 21.77v-6.7h48.71v6.7H21.65ZM21.65 35.72v-6.71h34.66v6.71H21.65ZM63.6 29.01h6.69v6.72H63.6v-6.72Z" fill="#fff"/></svg>