<svg width="223" height="209" fill="none" xmlns="http://www.w3.org/2000/svg"><path d="M42.03 21.38C43.08 6.15 47.67-.02 57.6 0c9.9.01 14.33 5.97 15.55 21.14h76.71c0-2.1-.06-4.2.01-6.3C150.15 6.47 156.86 0 165.22 0c8.38 0 15.06 6.44 15.35 14.84.07 2.01.01 4.03.01 6.27.95.1 1.76.25 2.57.25 5.34.02 10.68 0 16.02.01 14.09.02 23.07 8.92 23.07 22.91.01 32.51 0 65.01 0 97.52 0 12.04.03 24.09-.01 36.13-.05 17.71-12.07 30.2-29.79 30.99-.85.04-1.71.04-2.56.04-52.33 0-104.65-.05-156.98.04-12.05.02-21.6-4.27-28.08-14.62-2.77-4.43-4.23-9.33-4.24-14.54C.54 134.01.49 88.18.59 42.35c.03-11.61 9.39-20.73 21.12-20.96 6.72-.11 13.43-.01 20.32-.01ZM9.53 70.61v3.52c0 34.41-.01 68.83 0 103.24 0 13.94 8.51 22.62 22.47 22.63 52.95.05 105.9.06 158.84 0 13.97-.02 22.43-8.69 22.43-22.67.01-34.41 0-68.83 0-103.24v-3.48H9.53Zm203.65-9.16c0-6.97.34-13.68-.1-20.34-.4-6.09-5.72-10.52-11.98-10.76-2.88-.11-5.76-.03-8.65-.03h-11.86c0 1.96.04 3.45-.01 4.94-.25 8.57-6.97 15.12-15.45 15.07-8.48-.05-15.09-6.64-15.28-15.25-.03-1.54 0-3.08 0-4.57H74.13c-1.4 4.71-2.08 9.3-4.09 13.2-2.26 4.39-6.72 6.35-11.75 6.59-3.77.18-7.13-.89-10.15-3.18-5.56-4.22-6.25-10.26-6-16.79h-4.45c-5.66.02-11.33-.24-16.97.14-6.44.43-11.04 5.74-11.18 12.25-.07 3.3-.02 6.6-.02 9.91v8.83c68.11-.01 135.67-.01 203.66-.01ZM64.05 21.22c-.36-4.36 1.26-8.94-3.49-11.51-2.35-1.27-4.81-1.1-6.9.6-3.7 3.01-2.26 7.08-2.39 10.91h12.78Zm107.59.02c-.27-4.36 1.29-8.9-3.4-11.5-2.33-1.3-4.8-1.13-6.9.55-3.74 2.99-2.23 7.09-2.49 10.96 4.4-.01 8.41-.01 12.79-.01ZM51.28 30.46c-.16 4.03-.82 7.92 3.29 10.14 2.34 1.26 4.77 1.11 6.87-.54 3.27-2.55 2.66-6.07 2.31-9.6H51.28Zm107.62.03c-.06 3.82-.87 7.68 3.13 10 2.41 1.4 4.94 1.27 7.14-.5 3.23-2.59 2.56-6.08 2.26-9.51-4.31.01-8.3.01-12.53.01Z" fill="#fff"/><path d="M105.06 107.85c0 4.15.03 8.3-.01 12.45-.04 3.74-1.52 5.31-5.17 5.33-8.42.05-16.84.05-25.26 0-3.67-.02-5.31-1.58-5.35-5.23-.07-8.4-.08-16.81 0-25.21.03-3.59 1.72-5.22 5.4-5.25 8.31-.07 16.63-.07 24.94 0 3.88.03 5.4 1.61 5.44 5.47.04 4.14.01 8.29.01 12.44Zm-26.71 8.65h17.58V99.13H78.35v17.37ZM105.06 154.03c0 4.15.05 8.3-.01 12.45-.05 3.45-1.66 5.08-5.11 5.11-8.53.05-17.06.06-25.59 0-3.27-.02-5.01-1.65-5.05-4.9-.1-8.62-.1-17.24 0-25.86.04-3.27 1.76-4.93 5.01-4.95 8.63-.07 17.27-.08 25.91.01 3.22.03 4.79 1.76 4.84 5.06.05 4.35 0 8.72 0 13.08Zm-26.66 8.4h17.42v-17.4H78.4v17.4ZM40.25 125.64c-4.26 0-8.53.05-12.79-.02-3.45-.05-5.07-1.65-5.09-5.12-.05-8.51-.06-17.02 0-25.53.02-3.26 1.65-4.98 4.92-5.02 8.63-.1 17.27-.1 25.9 0 3.26.04 4.93 1.76 4.96 5.01.08 8.51.07 17.02.01 25.53-.03 3.47-1.67 5.07-5.12 5.12-4.26.08-8.53.03-12.79.03Zm8.75-9.09V99.11H31.5v17.44H49ZM179.87 125.64c-4.26 0-8.53.05-12.79-.02-3.25-.06-4.95-1.68-4.98-4.92-.08-8.62-.08-17.24 0-25.85.03-3.08 1.68-4.83 4.75-4.87 8.74-.11 17.48-.11 26.22 0 3.23.04 4.78 1.81 4.81 5.13.05 8.51.06 17.02 0 25.53-.02 3.41-1.68 4.95-5.22 4.99-4.26.05-8.52.01-12.79.01Zm-8.73-9.19h17.61V99.11h-17.61v17.34ZM22.34 153.7c0-4.04-.02-8.09.01-12.13.03-4.08 1.55-5.69 5.53-5.71 8.21-.04 16.42-.04 24.63 0 4.02.02 5.64 1.61 5.66 5.61.04 8.19.04 16.39 0 24.58-.02 3.86-1.63 5.52-5.39 5.54-8.32.05-16.63.04-24.95 0-3.83-.02-5.43-1.62-5.47-5.44-.05-4.15-.02-8.3-.02-12.45Zm26.59 8.86v-17.55H31.57v17.55h17.36ZM179.64 171.6c-3.95 0-7.89.02-11.84-.01-4.07-.03-5.7-1.57-5.73-5.53-.04-8.19-.04-16.39 0-24.58.02-4.02 1.62-5.61 5.64-5.63 8.21-.04 16.42-.04 24.63 0 3.87.02 5.52 1.61 5.54 5.38.05 8.3.04 16.6 0 24.9-.02 3.82-1.63 5.41-5.45 5.46-4.26.05-8.52.01-12.79.01Zm-8.51-9.19h17.62v-17.36h-17.62v17.36ZM152.03 153.96c0 4.15.07 8.3-.02 12.44-.08 3.65-1.67 5.17-5.37 5.18-8.31.04-16.62.04-24.94 0-3.73-.02-5.35-1.52-5.38-5.16-.07-8.51-.07-17.02 0-25.53.03-3.46 1.67-5.02 5.19-5.04 8.42-.06 16.84-.06 25.26 0 3.62.02 5.17 1.62 5.24 5.34.09 4.26.02 8.52.02 12.77Zm-26.6 8.42h17.39v-17.37h-17.39v17.37ZM134.14 125.64c-4.15 0-8.31.03-12.46-.01-3.79-.04-5.33-1.44-5.36-5.14-.07-8.4-.06-16.8 0-25.2.03-3.71 1.58-5.32 5.23-5.35 8.42-.07 16.83-.07 25.25 0 3.54.03 5.17 1.59 5.2 5.06.09 8.51.09 17.01.01 25.52-.03 3.68-1.6 5.08-5.4 5.11-4.15.04-8.31.01-12.47.01Zm8.71-26.55h-17.38v17.39h17.38V99.09Z" fill="#fff"/></svg>