<svg width="264" height="238" fill="none" xmlns="http://www.w3.org/2000/svg"><path d="M.56 161.23c1.25-2.4 3.2-3.24 5.9-3.19 6.67.13 13.35.04 20.4.04v-3.41c0-45.1.01-90.21-.01-135.31 0-7.85 2.79-14.21 10.18-17.52C39.96.53 43.49.08 46.74.08c65.77-.1 131.54-.07 197.31-.07 1.2 0 2.4.04 3.6.12 8.81.61 15.66 7.47 16.28 16.3.24 3.44-1.44 5.4-4.9 5.44-6.09.07-12.18.02-18.26.02h-3.06v138.85c0 7.75-2.81 14.01-10.06 17.34-2.77 1.27-6.09 1.58-9.19 1.83-3.73.3-7.51.07-11.55.07V183c0 16.04-.02 32.07.02 48.11.01 2.37-.25 4.58-2.73 5.56-2.42.96-4.23-.29-5.91-1.98-7.3-7.36-14.64-14.67-22.12-22.14-5.67 5.68-11.24 11.25-16.8 16.83-1.88 1.88-3.78 3.74-5.63 5.65-1.55 1.6-3.33 2.51-5.53 1.65-2.25-.89-2.73-2.85-2.73-5.06.01-16.04.01-32.07.01-48.11v-3.52h-3.39c-40.65 0-81.29-.03-121.94.03-6.57.01-12.28-1.75-16.09-7.32-1.59-2.33-2.36-5.22-3.5-7.86-.01-1.21-.01-2.41-.01-3.61Zm153.78 5.76v54.81c1.09-1.02 1.78-1.61 2.42-2.25 5.16-5.15 10.29-10.32 15.47-15.45 2.9-2.87 5.03-2.86 7.93.02 5.29 5.26 10.55 10.55 15.83 15.82.57.57 1.19 1.09 2.2 2.01v-54.91h8.63c.08 1.43.14 2.68.21 3.97 4.99 0 9.78.15 14.56-.06 2.45-.11 4.37-1.56 5.95-4.15h-15.96v-8.81h17.34v-3.52c0-42.87-.02-85.74.02-128.62.01-5.68-.85-11.48 2.31-17.06H46.13c-7.24 0-10.48 3.27-10.48 10.56-.01 45.27 0 90.55 0 135.82v2.98h105.19v8.76H10.78c2.3 3.76 5.6 4.28 9.22 4.28 40.81-.02 81.63-.01 122.44-.01h2.86c.12-1.56.22-2.81.33-4.19h8.71ZM239.32 13.1h14.29c-2.98-5.97-12.28-5.15-14.29 0Z" fill="#fff"/><path d="M154.07 91.11c2.29.46 5.25.95 8.16 1.65 2.01.49 3.5.29 4.86-1.52 1.54-2.05 3.41-3.85 5.19-5.7 2.64-2.75 5.13-2.77 7.75-.05 2.08 2.16 4.02 4.47 6.16 6.56.59.58 1.76.95 2.59.83 3.05-.43 6.05-1.18 9.09-1.66 3.71-.58 5.48.81 5.96 4.53.36 2.8.78 5.61.97 8.42.11 1.61.8 2.43 2.23 3.02 2.69 1.12 5.33 2.35 7.94 3.62 3.17 1.54 3.91 3.81 2.26 6.96-1.35 2.58-2.74 5.14-4.27 7.62-.82 1.33-.91 2.35-.05 3.72 1.46 2.31 2.72 4.76 4.03 7.16 2.07 3.78 1.34 5.96-2.61 7.81-2.48 1.16-5.06 2.14-7.44 3.48-.92.52-1.79 1.75-1.99 2.79-.56 2.85-.73 5.77-1.11 8.66-.46 3.5-2.37 4.97-5.84 4.38-3.04-.51-6.04-1.25-9.09-1.65-.9-.12-2.15.31-2.81.95-2.16 2.08-4.09 4.39-6.16 6.56-2.43 2.54-4.91 2.58-7.35.1-1.92-1.96-3.87-3.91-5.55-6.07-1.32-1.69-2.76-1.91-4.66-1.46-2.58.61-5.2 1.09-7.81 1.56-3.49.62-5.4-.68-5.97-4.21-.48-3.04-.66-6.14-1.21-9.17-.16-.89-.99-1.94-1.81-2.38-2.64-1.41-5.43-2.52-8.13-3.83-3.17-1.54-3.97-3.85-2.35-6.95 1.35-2.58 2.74-5.15 4.29-7.6.91-1.45.82-2.57-.06-3.97-1.45-2.32-2.74-4.75-4.05-7.16-1.88-3.47-1.12-5.74 2.48-7.47 2.39-1.14 4.76-2.38 7.24-3.3 1.82-.67 2.45-1.81 2.61-3.6.26-2.99.58-5.98 1.08-8.93.5-2.62 2.15-3.8 5.43-3.7Zm53.51 46.39c-1.42-2.55-2.66-4.89-4.01-7.17-1.21-2.05-1.22-4-.01-6.05 1.37-2.32 2.62-4.71 3.99-7.19-2.69-1.24-5.07-2.39-7.5-3.43-2.2-.94-3.29-2.53-3.5-4.92-.23-2.7-.67-5.37-1.03-8.11-3.01.57-5.72 1-8.39 1.62-2.08.49-3.69-.1-5.08-1.62-1.9-2.08-3.82-4.13-5.87-6.35-1.96 2.12-3.83 4.12-5.65 6.15-1.5 1.67-3.21 2.37-5.5 1.81-2.63-.64-5.33-1.03-8.25-1.58-.32 2.77-.67 5.29-.88 7.83-.22 2.55-1.36 4.3-3.79 5.3-2.43 1-4.79 2.17-7.32 3.33 1.42 2.55 2.64 4.91 4.02 7.17 1.25 2.05 1.25 3.96.01 6.02-1.39 2.31-2.63 4.7-4.01 7.2 2.47 1.14 4.58 2.29 6.81 3.11 3 1.11 4.19 3.22 4.35 6.27.13 2.34.55 4.67.86 7.12 2.71-.54 5.07-.92 7.38-1.49 2.8-.7 4.99 0 6.84 2.24 1.58 1.9 3.36 3.64 5.16 5.57 1.97-2.14 3.85-4.13 5.67-6.17 1.44-1.61 3.1-2.27 5.28-1.78 2.72.61 5.47 1.05 8.41 1.61.36-2.94.74-5.64 1.02-8.36.22-2.16 1.22-3.66 3.24-4.54 2.5-1.1 4.96-2.3 7.75-3.59ZM211.21 52.83v8.43H53.43v-8.43h157.78ZM211.2 70.39v8.42H53.37v-8.42H211.2ZM167.25 26.52v8.46H97.39v-8.46h69.86ZM114.68 127.45v8.39H57.84v-8.39h56.84Z" fill="#fff"/><path d="M154.31 127.27c.02-12.04 9.94-21.95 21.92-21.89 12.01.06 21.94 10.02 21.89 21.96-.04 11.98-10.09 22-21.96 21.91-12.05-.08-21.87-9.97-21.85-21.98Zm21.83-13.08c-7.27.04-13.05 5.84-13.06 13.09-.01 7.22 5.79 13.09 13.02 13.18 7.21.09 13.32-6.04 13.25-13.27-.07-7.19-6.01-13.04-13.21-13Z" fill="#fff"/></svg>