<svg width="225" height="225" fill="none" xmlns="http://www.w3.org/2000/svg"><path d="M112.56 224.41H15.4c-9.77 0-14.8-5.04-14.8-14.81V14.82C.6 5.04 5.62.01 15.4.01h194.78c9.77 0 14.8 5.03 14.8 14.81V209.6c0 9.77-5.03 14.81-14.8 14.81h-97.62ZM7.21 112.2v97.38c0 6.1 2.12 8.22 8.21 8.22h194.76c6.09 0 8.21-2.12 8.21-8.22V14.82c0-6.1-2.11-8.21-8.21-8.21H15.42c-6.1 0-8.2 2.11-8.2 8.22-.01 32.45-.01 64.91-.01 97.37Z" fill="#fff"/><path d="M113.05 25.92h80.88c4.25 0 5.16.89 5.16 5.05v162.48c0 4.08-.93 5.04-4.94 5.04H31.44c-3.92 0-4.92-.97-4.92-4.82V30.72c0-3.84 1-4.8 4.94-4.8h81.59Zm79.24 165.86V32.69H33.27v159.09h159.02Z" fill="#fff"/><path d="M109.34 123.76c-6.37-2.79-8.53-6.28-8.44-13.21.01-.74-.78-1.79-1.48-2.2-8.32-4.9-16.69-9.72-25.06-14.53-1.44-.83-2.65-1.77-2.53-3.62.16-2.47 2.74-3.78 5.1-2.49 3.79 2.08 7.5 4.29 11.24 6.45 4.9 2.83 9.77 5.7 14.71 8.44.7.38 2.01.47 2.62.06 4.24-2.86 8.64-3.34 13.11-.89 4.31 2.36 6.39 6.2 6.11 11.12-.29 5.15-3.09 8.58-7.77 10.57-.22.09-.43.18-.83.35v10.28c0 6.92.01 13.83-.01 20.75-.01 2.74-1.24 4.18-3.41 4.11-2.07-.06-3.17-1.45-3.18-4.11-.03-10.22-.03-20.44-.05-30.65-.01-.07-.05-.15-.13-.43Zm3.42-16.88c-3.04.03-5.32 2.38-5.28 5.43.04 3.02 2.44 5.3 5.49 5.22 2.93-.08 5.15-2.37 5.16-5.32 0-3.04-2.33-5.36-5.37-5.33ZM163.88 138.5c1.03.31 1.6.37 2.07.63 2.19 1.22 4.41 2.41 6.51 3.77 1.58 1.02 2.02 2.58 1.13 4.31-.81 1.58-2.72 2.18-4.45 1.27-2.22-1.16-4.52-2.28-6.45-3.84-.86-.7-1.39-2.5-1.17-3.63.18-1 1.61-1.77 2.36-2.51ZM116.1 48.93c0 1.17.05 2.35-.01 3.52-.11 2.01-1.17 3.21-3.22 3.32-1.85.1-3.24-1.19-3.33-3.19-.1-2.42-.1-4.85 0-7.27.08-1.95 1.57-3.38 3.32-3.24 1.99.16 3.13 1.32 3.23 3.34.05 1.17.01 2.35.01 3.52ZM49.56 108.92c1.25 0 2.51-.1 3.75.02 1.89.18 3.03 1.3 3.04 3.23.02 1.93-1.09 3.16-2.98 3.27-2.57.15-5.17.16-7.74-.01-1.9-.12-3.01-1.44-2.95-3.31.05-1.87 1.21-3.03 3.12-3.18 1.25-.1 2.51-.02 3.76-.02ZM175.97 115.48c-1.25 0-2.52.11-3.75-.03-1.89-.21-3-1.36-2.98-3.29.02-1.93 1.15-3.11 3.05-3.22 2.5-.14 5.01-.12 7.51-.01 1.92.08 2.99 1.3 3.14 3.17.15 1.75-1.28 3.21-3.21 3.35-1.24.09-2.5.02-3.75.02-.01.02-.01.01-.01.01ZM86.89 163.92c-2.04 3.19-3.74 6.18-5.84 8.85-.46.59-2.79.5-3.53-.13-.84-.71-1.48-2.64-1.1-3.59 1-2.52 2.4-4.96 4.06-7.1.65-.83 2.57-1.24 3.68-.95 1 .24 1.68 1.72 2.73 2.92ZM109.51 175.259c0-1.17-.08-2.35.02-3.52.17-1.9 1.25-3 3.18-3.11 1.84-.1 3.26 1.18 3.35 3.17.11 2.42.1 4.85 0 7.27-.08 1.95-1.55 3.39-3.3 3.26-1.98-.15-3.15-1.29-3.25-3.32-.05-1.25 0-2.5 0-3.75ZM61.7 85.88c-1.02-.3-1.59-.36-2.05-.61-2.18-1.21-4.39-2.39-6.48-3.75-1.58-1.02-2.04-2.62-1.09-4.29.92-1.62 2.45-2.27 4.19-1.38 2.29 1.17 4.64 2.33 6.64 3.91.86.68 1.38 2.5 1.16 3.62-.2 1.01-1.63 1.77-2.37 2.5ZM164.5 86.34c-1.23-1.12-2.64-1.81-2.94-2.83-.31-1.03.07-2.92.85-3.51 2.22-1.69 4.71-3.12 7.29-4.21.9-.38 2.78.2 3.43.99.65.79.87 3.08.33 3.51-2.72 2.17-5.74 3.94-8.96 6.05ZM64.34 142.78c-.34.43-.86 1.53-1.73 2.13-1.86 1.29-3.86 2.37-5.86 3.44-1.89 1.01-3.77.52-4.69-1.08-.96-1.65-.47-3.43 1.41-4.6 1.99-1.24 4.01-2.45 6.1-3.49 2.35-1.17 4.8.38 4.77 3.6ZM143.37 160.62c.44.35 1.52.88 2.13 1.76 1.29 1.86 2.37 3.87 3.44 5.86 1 1.87.49 3.79-1.1 4.69-1.65.93-3.45.43-4.6-1.44-1.23-1.99-2.45-4.01-3.49-6.11-1.16-2.35.42-4.82 3.62-4.76ZM86.95 60.55c-1.14 1.23-1.84 2.62-2.86 2.92-1.03.3-2.9-.09-3.49-.87a33.818 33.818 0 0 1-4.19-7.29c-.37-.89.23-2.78 1.02-3.41.8-.64 3.08-.85 3.52-.3 2.15 2.71 3.91 5.73 6 8.95ZM149.77 53.77c-.35 1.1-.44 1.66-.7 2.12-1.18 2.11-2.35 4.24-3.63 6.29-1.09 1.73-2.74 2.11-4.47 1.12-1.64-.94-2.14-2.52-1.24-4.24 1.16-2.21 2.27-4.5 3.81-6.44.69-.87 2.47-1.5 3.55-1.28 1.09.23 1.91 1.67 2.68 2.43Z" fill="#fff"/></svg>