<svg width="269" height="270" fill="none" xmlns="http://www.w3.org/2000/svg"><path d="M66.72 1c2.6.68 5.24 1.22 7.79 2.06 15.72 5.13 26.66 19.29 27.5 35.79.29 5.67.11 11.37.16 17.06.06 6.53 3.14 9.84 9.61 10.33 3.34.26 4.81 1.84 4.88 5.24.24 11.79-5.51 19.94-17.44 24.41.54.22 1.18.31 1.62.66 8.07 6.49 12.2 14.89 12.18 25.28-.01 7.95 0 15.9 0 24.21 2.09 0 3.98-.04 5.87.01 3.3.08 5 1.75 5.06 5.06.06 3.76.02 7.53.02 11.29-.01 4.5-1.38 5.9-5.92 6.1-.35.02-.69.07-1.21.12.21 6.04-3.9 10.45-5.9 15.68-.76 1.98-1.46 4.14-1.47 6.22-.1 24.5-.09 49.01-.02 73.51.01 2.75-.74 4.77-3.29 5.96H17.37c-2.2-1.53-2.86-3.61-2.84-6.27.11-13.13.05-26.26.05-39.4 0-.79-.01-1.59.11-2.36.33-2.02 1.74-3.36 3.59-3.09 1.38.2 2.83 1.41 3.77 2.56.59.73.39 2.18.39 3.31.02 11.47.01 22.94.02 34.41 0 .93.08 1.85.13 2.83h6.42v-2.95c0-14.1-.01-28.19 0-42.29 0-3.97 1.17-5.21 5.03-5.47 5.54-.37 9.17-4.02 9.53-9.59.24-3.74 1.31-4.8 5.01-4.81 8.84-.02 17.69-.02 26.53 0 4.06.01 5.08 1 5.33 5.04.31 5.11 3.98 8.94 8.95 9.33 4.67.37 5.61 1.36 5.61 5.98.01 13.92 0 27.84 0 41.76v2.95h6.39v-71.56H22.46c0 4.48.04 8.77-.01 13.05-.04 3.08-1.58 4.76-4.09 4.69-2.44-.07-3.73-1.63-3.76-4.7-.04-4.55.08-9.11-.07-13.66-.05-1.59-.53-3.24-1.11-4.74-2.11-5.47-6.43-10.06-6.25-16.56-3.09.37-5.56-.34-7.13-3.02v-16.29c2.42-4.7 7.09-2.47 10.93-3.37v-2.96c0-7.27-.05-14.53.02-21.8.09-9.69 4.04-17.58 11.34-23.86.64-.55 1.27-1.11 1.97-1.72C12 90.2 7.15 83.32 7.34 71.58c.06-3.61 1.47-5.12 5-5.37 6.12-.42 9.36-3.82 9.42-9.96.05-4.73.01-9.45.01-14.18.01-5.66.9-11.15 3.12-16.38 1.22-2.86 3.19-3.94 5.5-3.05 2.24.87 2.61 3.01 1.87 6.01-1.12 4.55-2.12 9.18-2.52 13.83-.43 5.04.01 10.15-.17 15.22-.26 7.61-5.13 13.67-12.4 15.79-.64.19-1.26.44-1.84.64.24 6.7 5.14 12.66 11.65 13.46 4.92.6 9.95.36 14.93.42.52.01 1.22-.32 1.53-.73 1.14-1.52.32-7.99-1.08-9.3-4.21-3.92-7.04-8.66-8.46-14.23-2.36-9.22.26-15.54 8.42-20.42 2.93-1.75 5.85-3.52 8.77-5.28 5.99-3.61 12.11-7 17.03-12.15 3.46-3.62 7.53-2.72 9.54 1.93 3.4 7.86 6.8 15.72 10.1 23.63 3.98 9.52 2.22 18.19-5.02 25.29-2.96 2.9-2.81 5.89-2.57 9.2.05.74 1.16 2 1.79 2 5.07.04 10.18.23 15.19-.37 6.54-.78 12.07-7.83 11.31-13.58-10.32-3.29-14.13-8.58-14.17-19.56-.02-5.6.16-11.22-.25-16.8-1.28-17.35-18.78-31.08-36-28.56-5.67.83-10.75 2.89-15.43 6.16-2.05 1.43-4.28.97-5.56-.82-1.3-1.83-.93-3.98 1.04-5.53 1.03-.81 2.16-1.48 3.27-2.19C46.39 3.47 52.07 2.11 57.82.97c2.95.03 5.93.03 8.9.03Zm20.12 260.99c.11-.44.22-.69.22-.93.01-13.47.04-26.95-.05-40.42 0-.7-.94-1.6-1.67-2.06-2.54-1.63-5.64-2.68-7.66-4.78-2.33-2.42-3.73-5.72-5.67-8.86H51.14c-1.92 7.67-6.75 12.23-14.14 14.12V262c16.65-.01 33.16-.01 49.84-.01Zm22.5-93.33H14.96c.34 1.38.46 2.59.94 3.64 1.2 2.62 2.7 5.11 3.81 7.76.77 1.85 1.89 2.29 3.79 2.28 23.54-.07 47.08-.04 70.62-.05 2.96 0 6.54.85 8.7-.49 2.17-1.35 2.99-4.93 4.29-7.59.8-1.67 1.39-3.45 2.23-5.55ZM71.66 33.83c-2.97 2.16-5.51 4.15-8.19 5.93-2.69 1.79-5.51 3.37-8.28 5.04-3.29 1.98-6.56 4.01-9.89 5.92-3.34 1.92-4.69 4.74-4.29 8.53.86 8.2 7.19 15.63 15.27 17.86 8.28 2.28 17.56-.81 22.46-7.56 2.82-3.88 4.18-8.29 2.45-12.86-2.89-7.65-6.27-15.12-9.53-22.86Zm33.35 112.13c0-9.35.09-18.44-.07-27.53-.03-1.95-.77-3.95-1.49-5.81-3.25-8.31-12.5-15.01-20.32-14.75-3.02 15.92-6.05 31.88-9.11 47.98h12.81c1.02-7.7.92-8.01-4.15-13.09-.25-.25-.49-.5-.74-.75-2.45-2.48-2.77-4.78-.93-6.57 1.77-1.72 4.04-1.4 6.39.92 1.81 1.78 3.53 3.65 5.41 5.36 1.63 1.48 2.24 3.21 2.17 5.37-.1 2.93-.02 5.87-.02 8.86 3.55.01 6.67.01 10.05.01Zm-55.08-.04c-3.09-16.26-6.12-32.21-9.14-48.14-9.98.6-19.2 8.25-21.26 17.98-.75 3.54-.64 7.3-.7 10.96-.1 6.36-.03 12.72-.03 19.12h10.17c0-3.28-.15-6.35.07-9.4.1-1.37.64-2.95 1.52-3.98 2.04-2.39 4.36-4.55 6.64-6.72 1.9-1.81 4.24-1.82 5.82-.17 1.54 1.62 1.52 3.77-.2 5.64-1.54 1.67-3.24 3.2-4.8 4.86-.5.54-1.07 1.28-1.11 1.95-.13 2.59-.05 5.2-.05 7.92 4.47-.02 8.63-.02 13.07-.02Zm66.02 8.2H8.09v6.34h107.86v-6.34Zm-58.56-11.14c.2.02.41.05.61.07 0-6.46-.01-12.91.01-19.37 0-1.22-.02-2.47.24-3.65.43-1.96 1.83-2.96 3.82-2.91 1.99.05 3.28 1.14 3.66 3.11.18.93.15 1.92.15 2.88.01 6.86.01 13.72.01 20.58l.5.06c2.54-13.35 5.07-26.7 7.71-40.56-3.32 2.19-6.25 4.06-9.1 6.05-2.07 1.45-3.97 1.45-6.03 0-2.85-2-5.79-3.87-9.12-6.09 2.57 13.61 5.06 26.72 7.54 39.83Zm-7.78-49.47c3.57 2.38 7.34 4.91 11.14 7.37.5.33 1.46.6 1.85.35 4.09-2.61 8.1-5.34 11.69-7.73-1-3.4-1.87-6.34-2.76-9.37-6.39 2.26-12.97 1.99-19.18.09-.92 3.16-1.78 6.04-2.74 9.29ZM269 108.179c-1.31 2.55-3.39 3.48-6.23 3.37-3.85-.16-7.7 0-11.56-.05-2.88-.04-4.63-1.57-4.62-3.9.01-2.31 1.78-3.89 4.63-3.95 3.21-.07 6.43-.02 9.77-.02v-94.6H131.05v94.6h14.19c2.89 0 5.78-.03 8.67.01 4.3.05 5.9 1.63 5.92 5.86.02 7.18.01 14.36.01 21.54v3.26c1.15-1.09 1.81-1.7 2.45-2.34 8.61-8.6 17.24-17.18 25.79-25.84 1.73-1.75 3.6-2.53 6.05-2.52 12.17.06 24.34.02 36.51.04.95 0 2.24-.14 2.78.39 1.07 1.05 2.2 2.44 2.45 3.84.32 1.8-1.03 3.09-2.87 3.47-.93.19-1.92.15-2.88.15-11.21.01-22.41.05-33.62-.04-1.93-.02-3.24.6-4.57 1.95-10.17 10.26-20.42 20.44-30.6 30.69-1.84 1.86-3.75 3.3-6.46 2.16-2.73-1.15-2.95-3.59-2.94-6.17.04-8.49.02-16.99.02-25.48v-3.1h-13.38c-3.24 0-6.48.02-9.72-.01-4.26-.04-5.88-1.65-5.88-5.89-.01-15.76-.01-31.52-.01-47.28 0-16.9.05-33.8-.05-50.69-.02-2.89.75-5.09 3.18-6.64H269v107.19Z" fill="#fff"/><path d="M196.22 44.54h52.76c4.33 0 5.46 1.12 5.48 5.4.02 3.85.02 7.7 0 11.55-.02 4.28-1.14 5.4-5.49 5.41-18.2.01-36.4.01-54.6.01h-50.4c-5.17 0-6.19-1.02-6.2-6.08 0-3.59-.01-7.17 0-10.76.02-4.29 1.21-5.51 5.43-5.51 17.67-.02 35.34-.02 53.02-.02ZM145.8 58.85h100.57v-6.28H145.8v6.28ZM181.74 73.52h38.33c4.12 0 5.36 1.22 5.37 5.26.01 3.94.01 7.88 0 11.81-.01 4.09-1.23 5.35-5.31 5.36-13.83.02-27.65.01-41.48.01h-34.92c-4.87 0-5.97-1.13-5.97-6.09 0-3.76-.03-7.53.01-11.29.04-3.69 1.41-5.05 5.11-5.06 12.96-.01 25.91 0 38.86 0Zm-35.96 14.37h71.58v-6.3h-71.58v6.3ZM210.6 37.84c-12.86 0-25.72.01-38.58 0-3.95 0-5.15-1.19-5.18-5.16-.03-4.11-.05-8.22.01-12.33.05-3.5 1.3-4.79 4.76-4.8 26.07-.02 52.13-.02 78.2 0 3.29 0 4.59 1.34 4.63 4.64.05 4.2.04 8.4.01 12.6-.03 3.8-1.26 5.04-5.01 5.05-12.95.01-25.89 0-38.84 0Zm35.82-14.19h-71.49v6.14h71.49v-6.14ZM243.22 73.53c2.36 0 4.72-.06 7.08.02 2.61.09 4.08 1.49 4.12 4.09.09 4.72.08 9.44 0 14.15-.05 2.64-1.43 4.06-4.09 4.13-4.72.11-9.44.12-14.15-.01-2.63-.07-3.96-1.57-3.99-4.22-.06-4.63-.06-9.26 0-13.89.04-2.75 1.48-4.17 4.23-4.25 2.25-.08 4.52-.02 6.8-.02Zm3.18 14.41v-6.37h-6.2v6.37h6.2ZM61.93 233.749c-4.55 0-9.09.03-13.64-.01-3.02-.02-4.77-1.57-4.72-4.05.06-2.38 1.74-3.81 4.66-3.81 9.18-.02 18.36-.02 27.53 0 2.84.01 4.59 1.54 4.61 3.89.01 2.35-1.74 3.94-4.55 3.97-4.62.04-9.26.01-13.89.01ZM61.77 219.159c-2.27 0-4.55.02-6.82-.01-2.34-.03-3.83-1.14-4.07-3.55-.23-2.28 1.21-4.12 3.68-4.21 4.89-.17 9.79-.17 14.69-.03 2.49.07 3.93 1.85 3.83 4.1-.1 2.25-1.61 3.61-4.23 3.68-2.36.07-4.72.02-7.08.02ZM60.41 54.16c0-1.79-.06-3.44.01-5.09.11-2.45 1.7-4.01 3.94-3.99 2.12.02 3.75 1.51 3.88 3.8.12 2.09.15 4.21-.04 6.29-.31 3.34-2.76 6.02-5.99 6.86-3.29.85-5.81-.23-6.42-2.74-.6-2.44.92-4.21 4.62-5.13Z" fill="#fff"/></svg>